<?xml version="1.0" encoding="UTF-8" standalone="no"?>
<!-- Generator: Adobe Illustrator 19.2.1, SVG Export Plug-In . SVG Version: 6.00 Build 0)  -->

<svg
   xmlns:dc="http://purl.org/dc/elements/1.1/"
   xmlns:cc="http://creativecommons.org/ns#"
   xmlns:rdf="http://www.w3.org/1999/02/22-rdf-syntax-ns#"
   xmlns:svg="http://www.w3.org/2000/svg"
   xmlns="http://www.w3.org/2000/svg"
   xmlns:sodipodi="http://sodipodi.sourceforge.net/DTD/sodipodi-0.dtd"
   xmlns:inkscape="http://www.inkscape.org/namespaces/inkscape"
   version="1.1"
   id="Inhalt"
   x="0px"
   y="0px"
   viewBox="0 0 38.407001 44.914001"
   xml:space="preserve"
   sodipodi:docname="reset_white.svg"
   width="38.407001"
   height="44.914001"
   inkscape:version="0.92.4 (5da689c313, 2019-01-14)"><metadata
   id="metadata25"><rdf:RDF><cc:Work
       rdf:about=""><dc:format>image/svg+xml</dc:format><dc:type
         rdf:resource="http://purl.org/dc/dcmitype/StillImage" /><dc:title></dc:title></cc:Work></rdf:RDF></metadata><defs
   id="defs23" /><sodipodi:namedview
   pagecolor="#ffffff"
   bordercolor="#666666"
   borderopacity="1"
   objecttolerance="10"
   gridtolerance="10"
   guidetolerance="10"
   inkscape:pageopacity="0"
   inkscape:pageshadow="2"
   inkscape:window-width="1920"
   inkscape:window-height="1001"
   id="namedview21"
   showgrid="false"
   inkscape:zoom="11.313709"
   inkscape:cx="39.180076"
   inkscape:cy="24.397759"
   inkscape:window-x="2551"
   inkscape:window-y="361"
   inkscape:window-maximized="1"
   inkscape:current-layer="Inhalt" />
<style
   type="text/css"
   id="style2">
	.st0{fill:none;stroke:#000000;stroke-width:3.2;stroke-linecap:round;stroke-linejoin:round;stroke-miterlimit:10;}
	.st1{fill:none;stroke:#4794DA;stroke-width:2;stroke-linecap:round;stroke-linejoin:round;stroke-miterlimit:10;}
	.st2{fill:none;stroke:#000000;stroke-width:2;stroke-linecap:round;stroke-linejoin:round;stroke-miterlimit:10;}
	.st3{fill:none;stroke:#FFFFFF;stroke-width:2;stroke-linecap:round;stroke-linejoin:round;stroke-miterlimit:10;}
	.st4{fill:none;stroke:#000000;stroke-width:1.6;stroke-linecap:round;stroke-linejoin:round;stroke-miterlimit:10;}
	.st5{fill:none;stroke:#000000;stroke-width:3.2;stroke-miterlimit:10;}
	.st6{fill:#FFFFFF;stroke:#000000;stroke-width:3.2;stroke-miterlimit:10;}
	.st7{fill:none;stroke:#000000;stroke-width:3.2;stroke-linecap:round;stroke-linejoin:round;}
	.st8{fill:none;stroke:#000000;stroke-width:3.2;stroke-linecap:round;stroke-linejoin:round;stroke-dasharray:7.5299,7.5299;}
	.st9{fill:none;stroke:#4794DA;stroke-width:2;stroke-linecap:round;stroke-linejoin:round;}
	.st10{fill:none;stroke:#4794DA;stroke-width:2;stroke-linecap:round;stroke-linejoin:round;stroke-dasharray:3.741,3.741;}
	.st11{fill:none;stroke:#000000;stroke-width:2;stroke-linecap:round;stroke-linejoin:round;}
	.st12{fill:none;stroke:#000000;stroke-width:2;stroke-linecap:round;stroke-linejoin:round;stroke-dasharray:3.741,3.741;}
	.st13{fill:none;stroke:#FFFFFF;stroke-width:2;stroke-linecap:round;stroke-linejoin:round;}
	.st14{fill:none;stroke:#FFFFFF;stroke-width:2;stroke-linecap:round;stroke-linejoin:round;stroke-dasharray:3.741,3.741;}
	.st15{fill:none;stroke:#4794DA;stroke-linecap:round;stroke-linejoin:round;stroke-miterlimit:10;}
	.st16{fill:none;stroke:#000000;stroke-linecap:round;stroke-linejoin:round;stroke-miterlimit:10;}
	.st17{fill:none;stroke:#FFFFFF;stroke-linecap:round;stroke-linejoin:round;stroke-miterlimit:10;}
	.st18{fill:#FF0000;stroke:#FFFFFF;stroke-miterlimit:10;}
	.st19{fill:#0000FF;stroke:#FFFFFF;stroke-miterlimit:10;}
	.st20{fill:#00FF00;stroke:#FFFFFF;stroke-miterlimit:10;}
</style>
<g
   id="g18"
   transform="translate(-20.793162,-17.493)">
	<polyline
   class="st2"
   points="44.8,34.3 39.9,24.9 48.4,18.8  "
   id="polyline4"
   style="fill:none;stroke:#000000;stroke-width:2;stroke-linecap:round;stroke-linejoin:round;stroke-miterlimit:10" />
	<path
   class="st2"
   d="m 40.3,25.2 c 10,0 17.9,8.1 17.9,18.1 0,10 -8.1,18.1 -18.1,18.1 -6.2,0 -10.2,-2.5 -13.6,-6.4"
   id="path6"
   inkscape:connector-curvature="0"
   style="fill:none;stroke:#000000;stroke-width:2;stroke-linecap:round;stroke-linejoin:round;stroke-miterlimit:10" />
	<g
   id="g14">
		<path
   class="st11"
   d="m 27.5,56.2 c -0.5,-0.5 -1,-1 -1.4,-1.6"
   id="path8"
   inkscape:connector-curvature="0"
   style="fill:none;stroke:#000000;stroke-width:2;stroke-linecap:round;stroke-linejoin:round" />
		<path
   class="st12"
   d="M 24.2,51.3 C 23.4,49.6 22.8,47.8 22.4,46"
   id="path10"
   inkscape:connector-curvature="0"
   style="fill:none;stroke:#000000;stroke-width:2;stroke-linecap:round;stroke-linejoin:round;stroke-dasharray:3.741, 3.741" />
		<path
   class="st11"
   d="M 22,44.2 C 21.9,43.4 21.8,42.7 21.8,42"
   id="path12"
   inkscape:connector-curvature="0"
   style="fill:none;stroke:#000000;stroke-width:2;stroke-linecap:round;stroke-linejoin:round" />
	</g>
	<line
   class="st2"
   x1="32.099998"
   y1="18.5"
   x2="32.099998"
   y2="34.299999"
   id="line16"
   style="fill:none;stroke:#000000;stroke-width:2;stroke-linecap:round;stroke-linejoin:round;stroke-miterlimit:10" />
</g>
<path
   style="fill:#ffffff;stroke-width:0.04237288"
   d="M 3.1889416,34.762069 C 2.976492,34.706777 2.8003747,34.597158 2.6701338,34.439154 2.4528603,34.175563 1.8280216,32.682626 1.3756251,31.346163 1.0575962,30.406647 1.0350905,30.151441 1.2409092,29.818537 1.580682,29.268967 2.288685,29.179003 2.7460264,29.627285 c 0.1875022,0.183788 0.2104504,0.233363 0.4592674,0.992148 0.2815938,0.858741 0.6347109,1.771813 0.9611163,2.485205 0.2335808,0.510515 0.2705593,0.828276 0.1282062,1.101695 -0.2212513,0.424959 -0.694399,0.662773 -1.1056747,0.555736 z"
   id="path15"
   inkscape:connector-curvature="0" /><path
   style="fill:#ffffff;stroke-width:0.04237288"
   d="m 0.81606021,27.600407 c -0.20894856,-0.09695 -0.41940038,-0.313536 -0.50569586,-0.52044 -0.0850964,-0.204029 -0.23082139,-1.3806 -0.2642089,-2.1332 -0.02448457,-0.551916 -0.01973103,-0.60931 0.06663606,-0.804557 0.0511508,-0.115635 0.13497258,-0.255909 0.18627066,-0.31172 0.14048486,-0.152844 0.48916406,-0.301295 0.70767603,-0.301295 0.404364,0 0.8316598,0.319566 0.9255963,0.692234 0.024342,0.09657 0.055361,0.385328 0.068932,0.641684 0.013571,0.256356 0.063968,0.791567 0.1119931,1.189359 0.098491,0.815795 0.084976,0.940906 -0.1343455,1.24367 -0.2479287,0.342256 -0.78059,0.481629 -1.16285389,0.304265 z"
   id="path17"
   inkscape:connector-curvature="0" /><path
   style="fill:#ffffff;stroke-width:0.04237288"
   d="m 10.876512,17.681865 c -0.209593,-0.110802 -0.448557,-0.387003 -0.502311,-0.580584 -0.0601,-0.216425 -0.06328,-16.15525826 -0.0033,-16.37127601 0.23129,-0.83255263 1.408477,-0.93962758 1.795337,-0.16330085 l 0.111656,0.22406474 V 8.9132037 17.035639 l -0.118366,0.227296 c -0.09131,0.175331 -0.170798,0.25878 -0.347702,0.365008 -0.197999,0.118895 -0.267227,0.137456 -0.506634,0.135839 -0.187194,-0.0013 -0.326498,-0.02788 -0.428711,-0.08192 z"
   id="path19"
   inkscape:connector-curvature="0" /><path
   style="fill:#808080;stroke-width:0.04237288"
   d="M 17.808027,44.840541 C 13.538436,44.529477 10.074984,43.049464 6.9899337,40.217732 6.7266658,39.976081 6.431115,39.716963 6.333154,39.641914 6.2351931,39.566865 6.1016377,39.464506 6.0363642,39.41445 5.8512831,39.272517 4.9612903,38.292104 4.7153971,37.959277 4.3930378,37.522949 4.3395222,37.401872 4.3395222,37.108875 c 0,-0.554218 0.4136908,-0.967793 0.9680634,-0.967793 0.3763727,0 0.518423,0.09563 1.1637694,0.783434 2.1671582,2.309747 3.59141,3.448224 5.505111,4.400514 1.690509,0.841226 3.384826,1.306152 5.576882,1.530316 0.663778,0.06788 2.699189,0.06884 3.347458,0.0016 1.594311,-0.165407 3.126783,-0.522864 4.512712,-1.05261 C 31.24217,39.576437 35.413826,34.329067 36.258486,28.162854 36.865188,23.733786 35.765469,19.263893 33.189406,15.68834 32.25384,14.389783 30.937342,13.040818 29.66593,12.077967 27.304876,10.289921 24.456564,9.1485387 21.497215,8.8045802 c -0.301213,-0.035009 -0.554134,-0.057178 -0.562048,-0.049264 -0.0079,0.00791 0.891946,1.7522988 1.99969,3.8764088 1.459488,2.798583 2.021267,3.914458 2.040183,4.052459 0.03659,0.266953 -0.05177,0.540364 -0.245892,0.760903 -0.214188,0.24333 -0.453384,0.33625 -0.807536,0.313699 C 23.545595,17.734846 23.33007,17.58 23.098007,17.16707 23.001437,16.995238 21.851466,14.797875 20.542512,12.28404 18.703275,8.7518031 18.157329,7.668826 18.13942,7.5170908 18.10497,7.2252734 18.18874,6.9775997 18.393426,6.766023 c 0.09728,-0.100553 2.117036,-1.5740903 4.488347,-3.2745276 4.627064,-3.31798715 4.477393,-3.22159691 4.88344,-3.1449745 0.243481,0.0459458 0.415652,0.14693098 0.582164,0.34146227 0.351412,0.41054633 0.315379,0.95159163 -0.08808,1.32254253 -0.109546,0.1007198 -1.650356,1.2223219 -3.424021,2.492449 -1.773665,1.2701271 -3.220328,2.3146063 -3.214808,2.3210648 0.0055,0.00646 0.268811,0.049629 0.585089,0.095936 6.256041,0.9159492 11.548593,4.8148485 14.291091,10.5279145 0.797711,1.661761 1.352798,3.44114 1.649732,5.288357 0.272707,1.696497 0.303252,3.776105 0.08103,5.516728 -0.727712,5.70004 -4.019135,10.780259 -8.95796,13.826364 -0.74938,0.462193 -2.143636,1.157954 -2.968883,1.481534 -1.58505,0.6215 -3.228186,1.025462 -4.959519,1.219297 -0.715401,0.0801 -2.778578,0.115369 -3.533021,0.0604 z"
   id="path21"
   inkscape:connector-curvature="0" /><path
   style="fill:#ffffff;stroke-width:0.00390625"
   d="m 10.347583,1.6771016 c 4.3e-5,-0.00859 8.43e-4,-0.01165 0.0018,-0.00679 9.35e-4,0.00486 8.99e-4,0.01189 -7.9e-5,0.015625 -9.77e-4,0.00373 -0.0017,-2.409e-4 -0.0017,-0.00883 z"
   id="path23"
   inkscape:connector-curvature="0" /><path
   style="fill:#ffffff;stroke-width:0.08838835"
   d="m 17.991422,44.846841 c -0.01549,-0.01557 -0.280588,-0.05029 -0.589113,-0.07717 -0.949695,-0.08273 -1.164788,-0.10965 -1.604649,-0.200794 -0.233737,-0.04843 -0.452498,-0.08252 -0.486136,-0.07574 -0.03364,0.0068 -0.120821,-0.01049 -0.193741,-0.03836 -0.210821,-0.0806 -2.32836,-0.687211 -2.474874,-0.70898 -0.07292,-0.01083 -0.156049,-0.05152 -0.18473,-0.09042 -0.02868,-0.0389 -0.138061,-0.07719 -0.243068,-0.0851 -0.105006,-0.0079 -0.19092,-0.04107 -0.19092,-0.07369 0,-0.06599 -0.9304,-0.460497 -1.025104,-0.434663 -0.03299,0.009 -0.08432,-0.01897 -0.114063,-0.06214 -0.09951,-0.144465 -0.689134,-0.465314 -0.747623,-0.406826 -0.03177,0.03177 -0.05775,0.017 -0.05775,-0.0328 0,-0.07351 -1.0161412,-0.764825 -1.1399662,-0.775553 -0.019311,-0.0017 -0.1756426,-0.131763 -0.3474026,-0.28909 -0.17176,-0.157326 -0.325384,-0.272954 -0.3413866,-0.256951 -0.016003,0.016 -0.2565814,-0.180941 -0.5346193,-0.437653 C 7.4382384,40.5442 7.1971742,40.347742 7.1805779,40.364338 c -0.016596,0.0166 -0.6004406,-0.532784 -1.297432,-1.220844 -0.6969914,-0.68806 -1.2513858,-1.267247 -1.2319875,-1.28708 0.019398,-0.01984 -0.011704,-0.09266 -0.069117,-0.161839 -0.1287269,-0.155107 -0.245376,-0.995342 -0.1381824,-0.995342 0.042767,0 0.057141,-0.03336 0.031942,-0.07413 -0.063914,-0.103415 0.5889862,-0.456323 0.8429132,-0.455615 0.3162997,8.84e-4 0.5992214,0.225585 1.5593488,1.238474 0.8414826,0.887724 2.4044947,2.303815 2.5551069,2.314929 0.039576,0.0029 0.1243962,0.08018 0.1884894,0.171685 0.064093,0.09151 0.1535865,0.143474 0.1988738,0.115485 0.045287,-0.02799 0.082341,-0.01291 0.082341,0.0335 0,0.09863 0.8928189,0.687854 0.9928639,0.655246 0.03729,-0.01215 0.0678,0.01365 0.0678,0.05734 0,0.09847 1.590471,0.928192 1.592344,0.830702 7.43e-4,-0.03875 0.03058,-0.02794 0.06629,0.02402 0.07631,0.111021 0.816239,0.415544 0.816239,0.33593 0,-0.02987 0.05966,-0.0048 0.132583,0.05573 0.07292,0.06052 0.132582,0.08041 0.132582,0.0442 0,-0.03621 0.05966,-0.01633 0.132583,0.04419 0.07292,0.06052 0.132582,0.08041 0.132582,0.04419 0,-0.03621 0.05966,-0.01632 0.132583,0.04419 0.07292,0.06052 0.132582,0.08041 0.132582,0.04419 0,-0.03621 0.06062,-0.01553 0.134719,0.04597 0.07409,0.06149 0.159928,0.08659 0.190741,0.05578 0.03081,-0.03081 0.09946,-0.02125 0.152543,0.02125 0.08774,0.07025 1.147226,0.327454 1.466541,0.356027 0.07292,0.0065 0.291681,0.03265 0.486136,0.05805 0.812998,0.106213 1.735586,0.165558 2.607456,0.167722 1.038996,0.0026 2.530736,-0.09975 2.665138,-0.18281 0.04839,-0.0299 0.194416,-0.06677 0.324507,-0.08193 0.737243,-0.0859 1.548062,-0.262542 1.737578,-0.378543 0.04776,-0.02923 0.147195,-0.05865 0.220971,-0.06538 0.227493,-0.02074 1.150602,-0.334611 1.150602,-0.391218 0,-0.02939 0.08591,-0.05991 0.190921,-0.06782 0.105007,-0.0079 0.218834,-0.05955 0.25295,-0.114748 0.03412,-0.0552 0.07747,-0.0906 0.09634,-0.07867 0.07719,0.04881 0.697225,-0.203597 0.697225,-0.283835 0,-0.04771 0.03657,-0.06415 0.08126,-0.03653 0.04469,0.02762 0.139397,-0.0079 0.210449,-0.07896 0.07105,-0.07105 0.153809,-0.104563 0.183902,-0.07447 0.03009,0.03009 0.05472,0.006 0.05472,-0.05362 0,-0.05959 0.03977,-0.08376 0.08839,-0.05371 0.04861,0.03005 0.08839,0.01251 0.08839,-0.03898 0,-0.05148 0.02983,-0.0889 0.06629,-0.08314 0.157182,0.02482 0.265706,-0.02144 0.447372,-0.190687 0.106394,-0.09912 0.193443,-0.159151 0.193443,-0.1334 0,0.02575 0.198874,-0.07555 0.441942,-0.225109 0.243068,-0.149561 0.441942,-0.31064 0.441942,-0.357952 0,-0.04731 0.03573,-0.06394 0.0794,-0.03695 0.04367,0.02699 0.20277,-0.06617 0.353553,-0.207023 0.150784,-0.140853 0.274152,-0.235306 0.274152,-0.209897 0,0.08512 1.008559,-0.792165 1.789864,-1.556892 0.425369,-0.416343 0.773398,-0.790216 0.773398,-0.830828 0,-0.04061 0.121004,-0.175659 0.268897,-0.300103 0.147894,-0.124445 0.252565,-0.242597 0.232601,-0.262562 -0.01996,-0.01996 0.0752,-0.155656 0.211476,-0.301539 0.293786,-0.314499 1.265048,-1.805752 1.236393,-1.898329 -0.01096,-0.0354 0.01972,-0.08887 0.06818,-0.118813 0.08909,-0.05506 0.817377,-1.463148 0.847351,-1.638283 0.0089,-0.05214 0.06543,-0.184292 0.125569,-0.293673 0.06014,-0.10938 0.07811,-0.199483 0.03994,-0.200227 -0.03817,-7.07e-4 -0.02588,-0.03057 0.02731,-0.06629 0.119924,-0.08052 0.578279,-1.432299 0.518471,-1.529069 -0.02395,-0.03875 -0.0066,-0.09329 0.0386,-0.121215 0.06753,-0.04173 0.183188,-0.47791 0.235875,-0.889528 0.0062,-0.04861 0.04221,-0.15971 0.07998,-0.24688 0.03777,-0.08717 0.04527,-0.181893 0.01666,-0.210495 -0.0286,-0.0286 -0.01452,-0.122038 0.03129,-0.207634 0.04581,-0.0856 0.112566,-0.428396 0.148347,-0.761777 0.07833,-0.729842 0.0833,-3.910167 0.0069,-4.406845 -0.02992,-0.194454 -0.07718,-0.492765 -0.105026,-0.662912 -0.02784,-0.170148 -0.05412,-0.369022 -0.05839,-0.441942 -0.0043,-0.07292 -0.02963,-0.192245 -0.05636,-0.265165 -0.02673,-0.07292 -0.06433,-0.262319 -0.08356,-0.420886 -0.01923,-0.158567 -0.07999,-0.397215 -0.135038,-0.53033 -0.05504,-0.133115 -0.09411,-0.270478 -0.08683,-0.305252 0.0073,-0.03477 -0.03268,-0.173985 -0.08881,-0.309359 -0.05613,-0.135374 -0.110361,-0.275965 -0.120512,-0.312425 -0.01015,-0.03646 -0.0284,-0.08618 -0.04055,-0.110486 -0.01215,-0.02431 -0.03204,-0.08397 -0.04419,-0.132582 -0.01215,-0.04861 -0.03011,-0.09833 -0.03991,-0.110486 -0.0098,-0.01215 -0.03113,-0.09168 -0.04742,-0.176735 -0.06182,-0.322886 -0.518642,-1.392158 -0.594773,-1.392158 -0.0438,0 -0.05506,-0.03977 -0.02501,-0.08839 0.03004,-0.04861 0.01016,-0.08839 -0.04419,-0.08839 -0.05435,0 -0.07424,-0.03977 -0.04419,-0.08839 0.03005,-0.04861 0.01016,-0.08839 -0.0442,-0.08839 -0.05435,0 -0.07424,-0.03978 -0.04419,-0.08839 0.03005,-0.04861 0.01016,-0.08839 -0.04419,-0.08839 -0.05435,0 -0.07424,-0.03977 -0.04419,-0.08839 0.03005,-0.04861 0.01016,-0.08839 -0.04419,-0.08839 -0.05435,0 -0.07424,-0.03977 -0.04419,-0.08839 0.03005,-0.04861 0.01251,-0.08839 -0.03898,-0.08839 -0.05148,0 -0.08889,-0.02983 -0.08314,-0.06629 0.02522,-0.159695 -0.02303,-0.267415 -0.209341,-0.467395 -0.10938,-0.117406 -0.188124,-0.22476 -0.174986,-0.238563 0.05538,-0.05819 -0.258051,-0.553576 -0.350248,-0.553576 -0.05547,0 -0.07687,-0.02398 -0.04756,-0.05329 0.06702,-0.06701 -0.696645,-1.122258 -1.292923,-1.786592 -1.23179,-1.372378 -2.545315,-2.482876 -3.945139,-3.335354 -0.809531,-0.492996 -1.758885,-0.973473 -2.033612,-1.02923 -0.07292,-0.0148 -0.152469,-0.04954 -0.176776,-0.077189 -0.07485,-0.085162 -0.795495,-0.3494451 -0.795495,-0.2917355 0,0.029866 -0.05966,0.00479 -0.132583,-0.055732 -0.07292,-0.060519 -0.132582,-0.080406 -0.132582,-0.044194 0,0.036212 -0.05966,0.016324 -0.132583,-0.044194 -0.07292,-0.060519 -0.132582,-0.080406 -0.132582,-0.044194 0,0.036212 -0.05966,0.016324 -0.132583,-0.044194 -0.07292,-0.060519 -0.132583,-0.080406 -0.132583,-0.044194 0,0.036212 -0.04972,0.02561 -0.110485,-0.02356 -0.154016,-0.1245733 -1.637751,-0.4850715 -1.73901,-0.4224893 -0.04557,0.028166 -0.108113,0.010355 -0.138974,-0.03958 -0.03086,-0.049935 -0.162878,-0.089861 -0.29337,-0.088725 -0.130491,0.00114 -0.465962,-0.030358 -0.74549,-0.069988 -0.279529,-0.03963 -0.508233,-0.038993 -0.508233,0.00142 0,0.1256506 0.548072,1.171631 0.63031,1.2029293 0.04284,0.016305 0.05541,0.066024 0.02794,0.1104855 -0.02748,0.04446 -0.0012,0.08084 0.05837,0.08084 0.05959,0 0.08324,0.0251 0.05256,0.05578 -0.0606,0.0606 0.810728,1.737274 0.928054,1.785832 0.0394,0.01631 0.04915,0.06602 0.02167,0.110485 -0.02748,0.04446 -0.0055,0.08084 0.04886,0.08084 0.05435,0 0.07424,0.03978 0.04419,0.08839 -0.03005,0.04861 -0.0059,0.08839 0.05371,0.08839 0.05958,0 0.0818,0.02653 0.04937,0.05896 -0.06534,0.06534 0.712602,1.558742 0.836526,1.60587 0.04288,0.01631 0.05547,0.06602 0.028,0.110485 -0.02748,0.04446 -0.0055,0.08084 0.04886,0.08084 0.05435,0 0.07424,0.03977 0.04419,0.08839 -0.03004,0.04861 -0.0059,0.08839 0.05371,0.08839 0.05958,0 0.08383,0.02451 0.05388,0.05446 -0.02995,0.02995 0.182179,0.526526 0.471406,1.103495 0.289225,0.576969 0.525864,1.131171 0.525864,1.23156 0,0.231012 -0.202703,0.62007 -0.412883,0.792465 -0.167455,0.137352 -0.913258,0.187239 -0.913056,0.06107 6.3e-5,-0.03933 -0.03251,-0.05134 -0.07239,-0.0267 -0.03988,0.02464 -0.208548,-0.181825 -0.374826,-0.458822 -0.166278,-0.276997 -0.332773,-0.516972 -0.36999,-0.533277 -0.03722,-0.01631 -0.04518,-0.06602 -0.0177,-0.110486 0.02748,-0.04446 0.0012,-0.08084 -0.05838,-0.08084 -0.05959,0 -0.08182,-0.02652 -0.04941,-0.05893 0.06608,-0.06608 -0.79902,-1.736324 -0.923334,-1.782677 -0.04373,-0.01631 -0.05702,-0.06603 -0.02954,-0.110486 0.02748,-0.04446 0.0055,-0.08084 -0.04886,-0.08084 -0.05435,0 -0.07424,-0.03978 -0.04419,-0.08839 0.03005,-0.04861 0.0059,-0.08839 -0.05371,-0.08839 -0.05959,0 -0.08238,-0.02595 -0.05067,-0.05767 0.06241,-0.06241 -0.808242,-1.735082 -0.928565,-1.783936 -0.04016,-0.01631 -0.05053,-0.06602 -0.02305,-0.110486 0.02748,-0.04446 0.0012,-0.08084 -0.05838,-0.08084 -0.05958,0 -0.08191,-0.02642 -0.04961,-0.05872 0.06424,-0.06424 -0.804363,-1.73483 -0.926985,-1.782885 -0.04161,-0.01631 -0.05317,-0.06602 -0.02569,-0.110486 0.02748,-0.04446 0.0012,-0.08084 -0.05838,-0.08084 -0.05959,0 -0.08385,-0.02448 -0.05393,-0.0544 0.02992,-0.02992 -0.221986,-0.606125 -0.559793,-1.280453 -0.390158,-0.7788293 -0.614195,-1.3329997 -0.614195,-1.5192494 0,-0.3580597 0.203421,-0.5607347 1.524699,-1.5191054 0.522596,-0.3790579 0.950175,-0.7258576 0.950175,-0.7706659 0,-0.044808 0.03573,-0.059387 0.0794,-0.032396 0.04367,0.02699 0.201375,-0.064866 0.350452,-0.2041249 0.149077,-0.139259 0.284636,-0.2396109 0.301243,-0.2230044 0.01661,0.016606 0.148782,-0.07812 0.293723,-0.2105034 0.144941,-0.1323832 0.283913,-0.2406969 0.308825,-0.2406969 0.100673,0 2.113501,-1.4906865 2.113501,-1.5652439 0,-0.044205 0.03296,-0.060006 0.07323,-0.035113 0.04028,0.024893 0.190946,-0.062252 0.334816,-0.1936574 0.14387,-0.1314049 0.299845,-0.2538507 0.346611,-0.2721017 0.04677,-0.018251 0.443002,-0.2811489 0.880525,-0.5842177 0.437522,-0.3030688 0.957846,-0.65691019 1.156276,-0.78631419 0.408176,-0.26618852 0.92085,-0.44083052 0.92085,-0.31368726 0,0.0452201 0.05273,0.0822183 0.117175,0.0822183 0.201763,0 0.582639,0.506109 0.631915,0.83968935 0.0072,0.048614 -0.02264,0.1363645 -0.06627,0.1950019 -0.04363,0.058637 -0.05853,0.1402597 -0.03311,0.1813827 0.02542,0.041123 -0.495653,0.4704439 -1.157929,0.9540466 -0.662276,0.4836026 -1.293745,0.9645522 -1.403263,1.0687767 -0.109518,0.1042246 -0.215963,0.1726604 -0.236544,0.1520794 -0.02058,-0.020581 -0.160807,0.077841 -0.311614,0.2187159 -0.150807,0.1408747 -0.287781,0.2425486 -0.304388,0.2259421 -0.01661,-0.016606 -0.154921,0.083727 -0.307366,0.2229641 -0.152445,0.1392369 -0.291656,0.2386737 -0.309359,0.2209709 -0.0177,-0.017703 -0.159208,0.083828 -0.314455,0.2256246 -0.155247,0.1417963 -0.282267,0.2416068 -0.282267,0.2218011 0,-0.073341 -2.074569,1.468176 -2.144829,1.5937239 -0.05481,0.097932 -0.02251,0.1310206 0.12997,0.1331511 0.293485,0.0041 0.71245,0.058368 0.865811,0.1121465 0.166928,0.058536 1.134238,0.2482821 1.370019,0.268741 0.09723,0.00844 0.197166,0.042185 0.222087,0.074996 0.02492,0.032811 0.164132,0.072586 0.309359,0.088388 0.145227,0.015802 0.283936,0.049703 0.308243,0.075334 0.05242,0.055279 1.065621,0.3886385 1.193243,0.3925976 0.04861,0.00151 0.108276,0.028598 0.132582,0.060199 0.02431,0.031601 0.123744,0.071376 0.220971,0.088388 0.09723,0.017012 0.229336,0.08065 0.293576,0.141417 0.102533,0.096991 0.233524,0.1286614 0.425746,0.1029362 0.03102,-0.00415 0.08074,0.030555 0.110486,0.077127 0.07677,0.1202115 1.335425,0.7422031 1.33706,0.6607373 7.07e-4,-0.037071 0.03057,-0.02363 0.06629,0.02987 0.103758,0.1554203 0.791447,0.560969 0.850723,0.501694 0.02965,-0.029648 0.05391,-0.012786 0.05391,0.03747 0,0.050256 0.159099,0.1966605 0.353553,0.3253442 0.194454,0.128683 0.353553,0.215327 0.353553,0.19254 0,-0.02279 0.09213,0.04625 0.204742,0.153425 0.232738,0.2215 1.399881,1.162919 1.489188,1.201181 0.128575,0.05509 1.443714,1.383936 1.422715,1.437548 -0.01236,0.03156 0.116604,0.179503 0.286594,0.328756 0.169989,0.149253 0.309072,0.312021 0.309072,0.361708 0,0.04969 0.07955,0.14002 0.176777,0.200739 0.09723,0.06072 0.176776,0.151629 0.176776,0.202022 0,0.05039 0.117082,0.219811 0.260183,0.376486 0.143101,0.156674 0.241973,0.284863 0.219717,0.284863 -0.02226,0 0.06482,0.159099 0.193505,0.353553 0.128683,0.194455 0.275088,0.353554 0.325344,0.353554 0.05026,0 0.06712,0.02426 0.03747,0.0539 -0.05638,0.05638 0.34365,0.746059 0.487146,0.839861 0.0455,0.02974 0.07596,0.08113 0.0677,0.11419 -0.02297,0.0919 0.728629,1.590539 0.834752,1.664439 0.05129,0.03572 0.06374,0.06555 0.02768,0.06629 -0.08716,0.0018 0.203789,0.734515 0.324655,0.817593 0.05196,0.03572 0.06679,0.06555 0.03294,0.06629 -0.05306,0.0012 0.170739,0.754654 0.341685,1.150402 0.0315,0.07292 0.05141,0.161033 0.04426,0.195807 -0.0072,0.03477 0.03167,0.173986 0.08628,0.309359 0.05461,0.135374 0.111223,0.336815 0.125812,0.447646 0.03722,0.282728 0.224592,1.186019 0.27906,1.345285 0.02494,0.07292 0.05715,0.232019 0.07159,0.353553 0.01443,0.121534 0.04474,0.38007 0.06734,0.574524 0.04237,0.364516 0.163715,2.195125 0.161117,2.43068 -0.0029,0.258837 -0.117084,1.906534 -0.159318,2.298097 -0.07771,0.720516 -0.0949,0.838308 -0.141878,0.972272 -0.05854,0.166928 -0.248282,1.134238 -0.268741,1.370019 -0.0084,0.09723 -0.04623,0.199664 -0.08398,0.227638 -0.03775,0.02797 -0.07753,0.177051 -0.08839,0.33128 -0.01086,0.154231 -0.04461,0.280499 -0.07499,0.280595 -0.03038,8.9e-5 -0.07834,0.115663 -0.106569,0.256813 -0.02823,0.14115 -0.21499,0.668165 -0.415022,1.171145 -0.200032,0.50298 -0.370837,0.954284 -0.379566,1.002898 -0.0087,0.04861 -0.0394,0.108276 -0.06815,0.132582 -0.07476,0.0632 -0.804832,1.484549 -0.793319,1.544481 0.0053,0.02747 -0.06941,0.134744 -0.165969,0.238389 -0.09656,0.103645 -0.154704,0.222197 -0.129209,0.263448 0.02549,0.04125 0.0095,0.075 -0.03551,0.075 -0.04502,0 -0.187145,0.159099 -0.315829,0.353553 -0.128684,0.194455 -0.205917,0.353554 -0.171629,0.353554 0.03429,0 0.003,0.04972 -0.06956,0.110485 -0.189573,0.158794 -0.808039,0.950175 -0.742565,0.950175 0.03027,0 -0.04159,0.08949 -0.159696,0.198873 -0.118105,0.109381 -0.655654,0.661227 -1.194554,1.226324 -0.538898,0.565098 -0.992751,1.014515 -1.008563,0.998703 -0.01581,-0.01581 -0.2362,0.161974 -0.489753,0.395078 -0.253555,0.233104 -0.462331,0.400197 -0.463948,0.371317 -0.0016,-0.02888 -0.07623,0.03529 -0.165804,0.142607 -0.08957,0.107313 -0.179993,0.177985 -0.200928,0.15705 -0.02093,-0.02094 -0.166201,0.07897 -0.322813,0.222013 -0.156612,0.143043 -0.303936,0.260494 -0.327388,0.261003 -0.121795,0.0026 -0.571117,0.286131 -0.571117,0.360331 0,0.04737 -0.02983,0.07686 -0.06629,0.06554 -0.0869,-0.02698 -2.083048,0.994635 -2.153299,1.102048 -0.02974,0.04548 -0.07946,0.07929 -0.110486,0.07513 -0.205178,-0.02746 -0.328021,0.01152 -0.463627,0.14713 -0.08507,0.08507 -0.168127,0.141721 -0.184562,0.125883 -0.06034,-0.05815 -0.557269,0.08954 -0.557269,0.165628 0,0.04323 -0.05966,0.0557 -0.132582,0.02772 -0.07292,-0.02798 -0.132583,-0.0081 -0.132583,0.04419 0,0.05229 -0.05966,0.07218 -0.132582,0.0442 -0.07292,-0.02798 -0.132583,-0.0081 -0.132583,0.04419 0,0.05229 -0.05966,0.07218 -0.132582,0.04419 -0.07292,-0.02798 -0.132661,-0.01679 -0.132759,0.02487 -8.8e-5,0.04166 -0.129083,0.08485 -0.286637,0.09597 -0.157554,0.01112 -0.300084,0.06109 -0.316732,0.111036 -0.01665,0.04995 -0.06665,0.06833 -0.111111,0.04085 -0.04446,-0.02748 -0.12657,-0.0217 -0.182463,0.01285 -0.05589,0.03454 -0.235724,0.07484 -0.399623,0.08955 -0.163899,0.01471 -0.342863,0.05447 -0.3977,0.08836 -0.05484,0.03389 -0.262808,0.07572 -0.462163,0.09296 -0.199354,0.01724 -0.422125,0.05548 -0.495045,0.08499 -0.136686,0.05531 -0.259182,0.06991 -1.237437,0.147457 -0.725495,0.05751 -3.010813,0.116685 -3.04838,0.07893 z"
   id="path25"
   inkscape:connector-curvature="0" /></svg>